<svg width="56" height="55" viewBox="0 0 56 55" fill="none" xmlns="http://www.w3.org/2000/svg">
<rect x="0.5" width="55" height="55" rx="10" fill="#B9EB93"/>
<g filter="url(#filter0_d_249_126)">
<path d="M17.9709 38.3C15.7909 38.3 13.8709 37.83 12.2109 36.89C10.5709 35.93 9.29086 34.61 8.37086 32.93C7.45086 31.25 6.99086 29.31 6.99086 27.11C6.99086 24.93 7.45086 23.02 8.37086 21.38C9.29086 19.72 10.5609 18.43 12.1809 17.51C13.8209 16.57 15.6809 16.1 17.7609 16.1C19.8809 16.1 21.7509 16.57 23.3709 17.51C25.0109 18.43 26.2909 19.72 27.2109 21.38C28.1309 23.04 28.5909 24.96 28.5909 27.14C28.5909 28.6 28.3509 29.98 27.8709 31.28C27.3909 32.56 26.6509 33.65 25.6509 34.55C24.6509 35.45 23.3509 36.1 21.7509 36.5L17.9709 38.3ZM17.7609 35.27C19.1209 35.27 20.3109 34.94 21.3309 34.28C22.3709 33.6 23.1809 32.64 23.7609 31.4C24.3409 30.16 24.6309 28.72 24.6309 27.08C24.6309 25.52 24.3409 24.16 23.7609 23C23.2009 21.82 22.4009 20.91 21.3609 20.27C20.3409 19.61 19.1409 19.28 17.7609 19.28C16.4009 19.28 15.2009 19.61 14.1609 20.27C13.1409 20.91 12.3509 21.81 11.7909 22.97C11.2309 24.13 10.9509 25.5 10.9509 27.08C10.9509 28.74 11.2309 30.19 11.7909 31.43C12.3709 32.65 13.1709 33.6 14.1909 34.28C15.2309 34.94 16.4209 35.27 17.7609 35.27ZM17.9709 38.3L17.7909 35.6L29.6109 34.91V38C28.3509 38 27.2409 38.01 26.2809 38.03C25.3409 38.07 24.4509 38.11 23.6109 38.15C22.7909 38.19 21.9309 38.22 21.0309 38.24C20.1309 38.28 19.1109 38.3 17.9709 38.3ZM31.9673 38V16.4H41.0873C42.6273 16.4 43.9673 16.66 45.1073 17.18C46.2473 17.7 47.1173 18.43 47.7173 19.37C48.3373 20.31 48.6473 21.41 48.6473 22.67C48.6473 23.91 48.3373 25 47.7173 25.94C47.1173 26.88 46.2473 27.61 45.1073 28.13C43.9673 28.65 42.6273 28.91 41.0873 28.91H35.0273V25.94H40.9673C42.2273 25.94 43.1873 25.65 43.8473 25.07C44.5273 24.49 44.8673 23.69 44.8673 22.67C44.8673 21.65 44.5373 20.87 43.8773 20.33C43.2173 19.77 42.2473 19.49 40.9673 19.49H35.8673V38H31.9673ZM44.3273 38L34.6973 26.96H39.0773L49.7273 38H44.3273Z" fill="black"/>
</g>
<defs>
<filter id="filter0_d_249_126" x="2.99072" y="16.1001" width="50.7363" height="30.2" filterUnits="userSpaceOnUse" color-interpolation-filters="sRGB">
<feFlood flood-opacity="0" result="BackgroundImageFix"/>
<feColorMatrix in="SourceAlpha" type="matrix" values="0 0 0 0 0 0 0 0 0 0 0 0 0 0 0 0 0 0 127 0" result="hardAlpha"/>
<feOffset dy="4"/>
<feGaussianBlur stdDeviation="2"/>
<feComposite in2="hardAlpha" operator="out"/>
<feColorMatrix type="matrix" values="0 0 0 0 0 0 0 0 0 0 0 0 0 0 0 0 0 0 0.25 0"/>
<feBlend mode="normal" in2="BackgroundImageFix" result="effect1_dropShadow_249_126"/>
<feBlend mode="normal" in="SourceGraphic" in2="effect1_dropShadow_249_126" result="shape"/>
</filter>
</defs>
</svg>
